<svg width="24" height="24" viewBox="0 0 24 24" fill="none" xmlns="http://www.w3.org/2000/svg">
<path d="M14.8 8.99997C14.6188 8.68574 14.3557 8.42668 14.0386 8.25053C13.7215 8.07438 13.3625 7.98777 13 7.99997H11C10.4696 7.99997 9.96086 8.21069 9.58579 8.58576C9.21071 8.96083 9 9.46954 9 9.99997C9 10.5304 9.21071 11.0391 9.58579 11.4142C9.96086 11.7893 10.4696 12 11 12H13C13.5304 12 14.0391 12.2107 14.4142 12.5858C14.7893 12.9608 15 13.4695 15 14C15 14.5304 14.7893 15.0391 14.4142 15.4142C14.0391 15.7893 13.5304 16 13 16H11C10.6375 16.0122 10.2785 15.9256 9.96142 15.7494C9.64435 15.5733 9.38115 15.3142 9.2 15M12 6V8M12 16V18M21 12C21 16.9706 16.9706 21 12 21C7.02944 21 3 16.9706 3 12C3 7.02944 7.02944 3 12 3C16.9706 3 21 7.02944 21 12Z" stroke="#121212" stroke-linecap="round" stroke-linejoin="round"/>
</svg>
