<svg width="16" height="16" viewBox="0 0 16 16" fill="none" xmlns="http://www.w3.org/2000/svg">
<path fill-rule="evenodd" clip-rule="evenodd" d="M10.6667 4.66667C10.6667 6.13943 9.47277 7.33333 8.00001 7.33333C6.52725 7.33333 5.33334 6.13943 5.33334 4.66667C5.33334 3.19391 6.52725 2 8.00001 2C9.47277 2 10.6667 3.19391 10.6667 4.66667ZM9.33334 4.66667C9.33334 5.40305 8.73639 6 8.00001 6C7.26363 6 6.66668 5.40305 6.66668 4.66667C6.66668 3.93029 7.26363 3.33333 8.00001 3.33333C8.73639 3.33333 9.33334 3.93029 9.33334 4.66667Z" fill="#121212"/>
<path d="M11.3333 10C11.3333 9.63181 11.0349 9.33333 10.6667 9.33333H5.33334C4.96515 9.33333 4.66668 9.63181 4.66668 10V14H3.33334V10C3.33334 8.89543 4.22877 8 5.33334 8H10.6667C11.7712 8 12.6667 8.89543 12.6667 10V14H11.3333V10Z" fill="#121212"/>
</svg>
