<svg width="20" height="20" viewBox="0 0 20 20" fill="none" xmlns="http://www.w3.org/2000/svg">
<path d="M10.1923 4.79071C10.9538 4.79071 11.5769 4.1628 11.5769 3.39535C11.5769 2.62791 10.9538 2 10.1923 2C9.43076 2 8.80768 2.62791 8.80768 3.39535C8.80768 4.1628 9.43076 4.79071 10.1923 4.79071ZM7.63076 7.1628L5.85846 16.1698C5.76846 16.5954 6.10076 17 6.53692 17H6.5923C6.91769 17 7.1946 16.7768 7.27076 16.4558L8.3923 11.4186L9.84614 12.8139V16.3024C9.84614 16.686 10.1577 17 10.5384 17C10.9192 17 11.2307 16.686 11.2307 16.3024V12.3675C11.2307 11.9837 11.0784 11.6209 10.8015 11.3558L9.77691 10.3721L10.1923 8.27908C10.9331 9.14421 12.0062 9.76513 13.2108 9.96049C13.6262 10.0233 14 9.68839 14 9.26281C14 8.92094 13.7508 8.6349 13.4115 8.57909C12.3592 8.40467 11.4869 7.77676 11.0231 6.9535L10.3307 5.83722C9.94306 5.21628 9.16767 4.96512 8.49614 5.25117L5.84461 6.38141C5.33231 6.60466 5 7.10699 5 7.67211V9.3256C5 9.70932 5.31154 10.0233 5.69231 10.0233C6.07307 10.0233 6.38461 9.70932 6.38461 9.3256V7.65118L7.63076 7.1628Z" fill="#121212"/>
</svg>
